<?xml version="1.0" encoding="UTF-8" standalone="no"?>
<!DOCTYPE svg PUBLIC "-//W3C//DTD SVG 20010904//EN"
              "http://www.w3.org/TR/2001/REC-SVG-20010904/DTD/svg10.dtd">

<svg xmlns="http://www.w3.org/2000/svg"
     width="500" height="500"
     viewBox="0 0 600 600">
  <path id="bust"
        fill="none" stroke="black" stroke-width="1"
        d="M 79.00,247.00
           C 72.17,244.06 63.24,239.54 57.00,235.56
             54.55,234.00 50.44,231.36 48.91,228.83
             46.85,224.94 48.57,218.23 48.91,214.00
             49.08,208.44 46.18,201.95 52.48,192.04
             56.56,185.61 67.02,183.55 74.00,179.69
             81.12,175.75 83.81,171.39 92.00,169.00
             92.00,169.00 88.33,186.00 88.33,186.00
             88.33,186.00 82.43,216.00 82.43,216.00
             82.43,216.00 79.00,247.00 79.00,247.00 Z
           M 154.00,139.00
           C 157.61,141.91 157.99,142.87 159.93,147.00
             160.98,149.25 162.11,151.49 162.35,154.00
             162.84,159.01 157.20,171.71 155.19,177.00
             155.19,177.00 141.28,221.00 141.28,221.00
             141.28,221.00 132.00,256.00 132.00,256.00
             110.14,256.00 99.78,255.26 79.00,247.00
             79.00,247.00 82.28,216.00 82.28,216.00
             84.61,198.75 90.62,173.07 97.00,157.00
             103.93,160.91 100.06,168.20 103.02,173.99
             105.27,178.37 109.50,178.74 115.00,190.00
             117.58,188.45 120.16,187.02 121.17,183.96
             122.34,180.43 119.46,175.92 123.70,170.43
             123.70,170.43 135.00,159.99 135.00,159.99
             135.00,159.99 146.81,148.00 146.81,148.00
             146.81,148.00 154.00,139.00 154.00,139.00 Z
           M 162.00,150.00
           C 162.00,150.00 183.00,165.31 183.00,165.31
             183.00,165.31 196.00,172.31 196.00,172.31
             196.00,172.31 214.00,182.22 214.00,182.22
             219.62,185.18 232.61,190.05 234.85,196.00
             235.98,199.04 233.78,201.67 232.11,204.00
             227.64,210.23 222.50,216.03 216.91,221.28
             194.00,242.85 163.59,256.00 132.00,256.00
             132.56,249.77 135.52,241.43 137.13,235.00
             137.13,235.00 153.35,181.00 153.35,181.00
             157.13,169.66 162.42,162.21 162.00,150.00 Z
           M 157.00,111.00
           C 157.00,111.00 160.00,111.00 160.00,111.00
             160.00,111.00 152.53,129.00 152.53,129.00
             151.11,135.17 153.54,139.37 149.15,146.00
             143.97,153.82 125.87,168.40 123.70,171.29
             117.78,179.15 127.17,185.10 115.00,190.00
             115.00,190.00 110.24,183.04 110.24,183.04
             110.24,183.04 102.60,173.99 102.60,173.99
             102.60,173.99 101.72,168.00 101.72,168.00
             101.72,168.00 102.68,143.00 102.68,143.00
             102.68,143.00 102.00,134.00 102.00,134.00
             110.12,136.67 110.18,145.78 121.00,146.45
             129.57,146.99 138.19,141.97 143.09,134.98
             143.09,134.98 149.32,124.00 149.32,124.00
             153.38,117.38 153.50,119.53 157.00,111.00 Z
           M 91.00,94.00
           C 91.00,87.22 90.66,82.71 92.49,76.00
             92.49,76.00 96.61,65.00 96.61,65.00
             97.52,60.81 96.15,56.94 98.74,53.09
             103.38,46.20 114.36,44.36 122.00,44.81
             124.89,44.75 127.10,44.29 130.00,44.81
             133.14,45.69 136.41,47.52 138.79,49.68
             143.84,54.26 147.39,64.40 148.79,71.00
             149.47,74.21 150.02,81.35 152.15,83.50
             153.96,85.34 156.76,84.34 159.00,84.00
             159.00,84.00 159.00,95.00 159.00,95.00
             159.00,95.00 163.00,97.00 163.00,97.00
             164.14,91.40 165.96,87.03 172.00,86.00
             171.19,92.14 169.45,101.05 165.58,105.98
             161.86,110.72 159.04,110.25 156.40,114.14
             156.40,114.14 142.39,136.90 142.39,136.90
             136.27,144.44 125.52,149.23 116.00,145.74
             111.01,143.91 109.56,140.75 106.20,137.14
             104.10,134.88 101.40,133.48 99.68,130.87
             95.73,124.89 95.18,118.38 92.86,112.01
             90.29,104.95 86.04,107.45 85.00,96.00
             85.00,96.00 88.00,97.00 88.00,97.00
             88.00,97.00 91.00,94.00 91.00,94.00 Z
           M 88.00,97.00
           C 82.75,93.53 84.17,86.39 83.00,81.00
             83.00,81.00 80.13,72.00 80.13,72.00
             80.13,72.00 75.82,58.00 75.82,58.00
             74.71,48.18 83.94,39.09 92.00,35.03
             92.00,35.03 103.74,30.02 103.74,30.02
             106.18,28.37 106.90,25.78 109.34,23.33
             112.71,19.94 118.21,17.82 123.00,18.34
             130.37,19.15 142.83,25.23 149.00,29.33
             154.74,33.15 163.28,38.70 167.40,44.17
             173.11,51.76 176.24,66.55 175.98,76.00
             175.85,80.91 175.02,82.63 173.00,87.00
             166.64,86.47 164.69,91.65 163.00,97.00
             163.00,97.00 159.00,95.00 159.00,95.00
             159.00,95.00 159.00,83.79 159.00,83.79
             156.57,84.55 153.75,85.71 151.74,83.79
             150.02,81.77 149.38,74.79 148.79,72.00
             147.37,65.33 143.75,55.21 138.79,50.47
             136.80,48.56 133.62,46.47 131.00,45.60
             128.08,44.62 125.95,44.94 123.00,44.88
             114.50,44.70 103.85,46.17 98.74,54.04
             96.13,58.06 97.53,61.73 96.61,66.00
             96.61,66.00 92.49,77.00 92.49,77.00
             90.74,83.42 91.00,87.53 91.00,94.00
             91.00,94.00 88.00,97.00 88.00,97.00 Z" />
</svg>
